<?xml version="1.0" encoding="UTF-8" standalone="no"?>
<svg width="256px" height="256px" viewBox="0 0 256 256" version="1.1" xmlns="http://www.w3.org/2000/svg" xmlns:xlink="http://www.w3.org/1999/xlink" xmlns:sketch="http://www.bohemiancoding.com/sketch/ns">
    <!-- Generator: Sketch 3.1.1 (8761) - http://www.bohemiancoding.com/sketch -->
    <title>brewery</title>
    <desc>Created with Sketch.</desc>
    <defs></defs>
    <g id="Page-1" stroke="none" stroke-width="1" fill="none" fill-rule="evenodd" sketch:type="MSPage">
        <g id="brewery" sketch:type="MSArtboardGroup">
            <circle id="Oval-1" fill="#D35400" sketch:type="MSShapeGroup" cx="128" cy="128" r="128"></circle>
            <g id="beer24" sketch:type="MSLayerGroup" transform="translate(45.000000, 58.000000)" fill="#FFFFFF">
                <g id="Layer_1_93_" sketch:type="MSShapeGroup">
                    <g id="Group">
                        <ellipse id="Oval" cx="152.765778" cy="80.9918919" rx="5.43244444" ry="16.6675676"></ellipse>
                        <path d="M37.0524444,7.36324324 C32.8817778,9.00540541 28.7186667,11.0524324 24.5442222,13.6783784 L20.7777778,13.6783784 C7.14,13.6783784 0,42.0037838 0,69.9962162 C0,97.9886486 7.13622222,126.314054 20.7777778,126.314054 L24.548,126.314054 C28.7224444,128.94 32.8855556,130.987027 37.0562222,132.629189 C30.0786667,118.167568 26.486,93.9967568 26.486,69.9962162 C26.486,45.9956757 30.0786667,21.8286486 37.0524444,7.36324324 L37.0524444,7.36324324 Z" id="Shape"></path>
                        <path d="M57.7546667,2.25891892 C54.3508889,2.6827027 50.9848889,3.26162162 47.634,4.06 C40.8,11.9264865 33.7204444,35.5940541 33.7204444,69.9962162 C33.7204444,104.398378 40.8,128.06973 47.634,135.936216 C50.9848889,136.738378 54.3508889,137.30973 57.7546667,137.737297 C51.0302222,121.796216 47.5735556,95.8054054 47.5735556,70 C47.5735556,44.1908108 51.0302222,18.2 57.7546667,2.25891892 L57.7546667,2.25891892 Z" id="Shape"></path>
                        <path d="M149.229778,13.6783784 C149.127778,13.6783784 149.014444,13.7124324 148.916222,13.7162162 C143.264667,10.167027 137.639556,7.62054054 131.980444,5.78162162 C124.602444,10.7005405 116.064667,34.2091892 116.064667,69.9962162 C116.064667,105.783243 124.602444,129.291892 131.980444,134.210811 C137.639556,132.379459 143.264667,129.829189 148.916222,126.276216 C149.014444,126.28 149.127778,126.314054 149.229778,126.314054 C162.863778,126.314054 170,97.9924324 170,69.9962162 C170,42.0037838 162.863778,13.6783784 149.229778,13.6783784 L149.229778,13.6783784 Z M149.229778,119.071892 C143.706667,119.071892 135.690222,99.9524324 135.690222,69.9962162 C135.690222,40.04 143.706667,20.9205405 149.229778,20.9205405 C154.749111,20.9205405 162.769333,40.04 162.769333,69.9962162 C162.769333,99.9524324 154.749111,119.071892 149.229778,119.071892 L149.229778,119.071892 Z" id="Shape"></path>
                        <path d="M123.850667,3.62486486 C113.654444,1.46432432 103.250444,1.15783784 92.2646667,1.15783784 L81.1655556,1.15783784 C76.0504444,1.15783784 71.0637778,1.22594595 66.164,1.50972973 C60.2706667,13.0994595 54.8117778,37.3762162 54.8117778,70 C54.8117778,102.971892 60.1384444,126.991351 66.0091111,138.482703 C70.9617778,138.77027 76.0013333,138.845946 81.1693333,138.845946 L92.2684444,138.845946 L92.2722222,138.845946 C103.254222,138.845946 113.658222,138.539459 123.854444,136.378919 C114.032222,124.395676 108.822667,96.5735135 108.822667,70.0075676 C108.826444,43.4378378 114.036,15.6081081 123.850667,3.62486486 L123.850667,3.62486486 Z" id="Shape"></path>
                    </g>
                </g>
            </g>
        </g>
    </g>
</svg>