<?xml version="1.0" encoding="UTF-8" standalone="no"?>
<!-- Created with Inkscape (http://www.inkscape.org/) -->

<svg
   xmlns:dc="http://purl.org/dc/elements/1.1/"
   xmlns:cc="http://creativecommons.org/ns#"
   xmlns:rdf="http://www.w3.org/1999/02/22-rdf-syntax-ns#"
   xmlns:svg="http://www.w3.org/2000/svg"
   xmlns="http://www.w3.org/2000/svg"
   xmlns:sodipodi="http://sodipodi.sourceforge.net/DTD/sodipodi-0.dtd"
   xmlns:inkscape="http://www.inkscape.org/namespaces/inkscape"
   id="svg2"
   version="1.1"
   inkscape:version="0.91 r13725"
   xml:space="preserve"
   width="140"
   height="200"
   viewBox="0 0 140 200"
   sodipodi:docname="glass-pour.svg"><title
     id="title4170">Brewpon</title><metadata
     id="metadata8"><rdf:RDF><cc:Work
         rdf:about=""><dc:format>image/svg+xml</dc:format><dc:type
           rdf:resource="http://purl.org/dc/dcmitype/StillImage" /><dc:title>Brewpon</dc:title></cc:Work></rdf:RDF></metadata><defs
     id="defs6"><clipPath
       clipPathUnits="userSpaceOnUse"
       id="clipPath16"><path
         d="M 0,792 612,792 612,0 0,0 0,792 Z"
         id="path18"
         inkscape:connector-curvature="0" /></clipPath></defs><sodipodi:namedview
     pagecolor="#ffffff"
     bordercolor="#666666"
     borderopacity="1"
     objecttolerance="10"
     gridtolerance="10"
     guidetolerance="10"
     inkscape:pageopacity="0"
     inkscape:pageshadow="2"
     inkscape:window-width="1920"
     inkscape:window-height="1017"
     id="namedview4"
     showgrid="false"
     inkscape:snap-grids="true"
     inkscape:zoom="1.3744354"
     inkscape:cx="372.9379"
     inkscape:cy="69.201453"
     inkscape:window-x="-8"
     inkscape:window-y="-8"
     inkscape:window-maximized="1"
     inkscape:current-layer="g10" /><g
     id="g10"
     inkscape:groupmode="layer"
     inkscape:label="brewponglass (2)"
     transform="matrix(1.25,0,0,-1.25,0,200)"><g
       id="g12"
       transform="translate(-160.53238,-488.88074)"><g
         id="g14"
         clip-path="url(#clipPath16)"><g
           id="g20"
           transform="translate(256.3979,634.1968)"><path
             d="m 0,0 c -4.065,0.208 -7.689,-0.988 -9.766,-2.947 -1.899,0.394 -4.476,0.685 -7.975,0.865 -5.644,0.297 -10.551,-1.556 -12.576,-4.41 -1.224,0.364 -2.555,0.605 -3.961,0.677 -3.753,0.196 -7.13,-0.81 -9.262,-2.51 -1.963,1.397 -4.723,2.339 -7.818,2.499 -4.819,0.257 -9.014,-1.469 -10.749,-4.102 -1.981,1.605 -4.945,2.711 -8.312,2.884 -6.198,0.314 -11.389,-2.622 -11.595,-6.573 -0.207,-3.954 4.657,-7.422 10.85,-7.74 4.82,-0.248 9.021,1.475 10.753,4.106 1.98,-1.599 4.942,-2.702 8.311,-2.878 3.746,-0.196 7.118,0.81 9.249,2.507 1.964,-1.399 4.727,-2.345 7.825,-2.507 4.557,-0.234 8.55,1.285 10.443,3.673 1.78,-0.652 3.815,-1.079 5.995,-1.197 1.962,-1.381 4.707,-2.314 7.785,-2.474 5.803,-0.305 10.728,2.264 11.496,5.834 5.14,0.366 7.349,4.249 10.161,6.553 C 13.233,-5.791 6.198,-0.327 0,0"
             style="fill:#fae3be;fill-opacity:1;fill-rule:nonzero;stroke:none"
             id="path22"
             inkscape:connector-curvature="0" /></g><g
           id="g24"
           transform="translate(173.8164,619.8564)"><path
             d="M 0,0 -7.351,-117.642 48.816,-127.943 85.99,-0.882 0,0 Z"
             style="fill:#f89734;fill-opacity:1;fill-rule:nonzero;stroke:none"
             id="path26"
             inkscape:connector-curvature="0" /></g><g
           id="g28"
           transform="translate(244.1255,597.5688)"><path
             d="m 0,0 -24.548,-80.311 -3.683,0.675 14.116,61.546 L 0,0 Z"
             style="fill:#373535;fill-opacity:1;fill-rule:nonzero;stroke:none"
             id="path30"
             inkscape:connector-curvature="0" /></g><g
           id="g32"
           transform="translate(266.9775,627.8179)"><path
             d="m 0,0 c 3.231,-4.015 3.895,-8.839 1.494,-10.769 -2.392,-1.92 -6.95,-0.221 -10.175,3.797 -3.231,4.017 -3.896,8.839 -1.498,10.764 C -7.783,5.715 -3.231,4.013 0,0"
             style="fill:#fae3be;fill-opacity:1;fill-rule:nonzero;stroke:none"
             id="path34"
             inkscape:connector-curvature="0" /></g><g
           id="g36"
           transform="translate(169.2461,504.397)"><path
             d="M 0,0 C 0,0 12.001,-5.02 24.921,-7.378 37.842,-9.733 51.514,-9.45 51.514,-9.45 l 36.43,125 L 7.701,130.269 0,0 Z m 55.259,-15.516 c 0,0 -13.36,-0.089 -31.808,3.032 C 5.003,-9.362 -5.56,-4.363 -5.56,-4.363 L 2.771,136.548 94.664,119.698 55.259,-15.516 Z"
             style="fill:#373535;fill-opacity:1;fill-rule:nonzero;stroke:none"
             id="path38"
             inkscape:connector-curvature="0" /></g><g
           id="g40"
           transform="translate(271.7246,622.3926)"><path
             d="m 0,0 c 2.961,-6.968 -2.943,-25.706 -6.039,-27.012 -3.077,-1.304 -3.086,13.957 -4.708,21.334 -0.85,3.867 -1.769,7.615 -4.038,9.919 -1.795,1.821 2.793,4.434 4.276,5.065 C -7.427,10.614 -2.953,6.953 0,0"
             style="fill:#fae3be;fill-opacity:1;fill-rule:nonzero;stroke:none"
             id="path42"
             inkscape:connector-curvature="0" /></g></g></g></g></svg>