<?xml version="1.0" encoding="UTF-8" standalone="no"?>
<svg width="256px" height="256px" viewBox="0 0 256 256" version="1.1" xmlns="http://www.w3.org/2000/svg" xmlns:xlink="http://www.w3.org/1999/xlink" xmlns:sketch="http://www.bohemiancoding.com/sketch/ns">
    <!-- Generator: Sketch 3.1.1 (8761) - http://www.bohemiancoding.com/sketch -->
    <title>info</title>
    <desc>Created with Sketch.</desc>
    <defs></defs>
    <g id="Page-1" stroke="none" stroke-width="1" fill="none" fill-rule="evenodd" sketch:type="MSPage">
        <g id="info" sketch:type="MSArtboardGroup" fill="#BFBFBF">
            <g id="info28" sketch:type="MSLayerGroup">
                <path d="M127.994582,0 C57.3114921,0 0,57.3114921 0,127.994582 C0,198.677672 57.3114921,256 127.994582,256 C198.677672,256 256,198.677672 256,127.994582 C256,57.3114921 198.677672,0 127.994582,0 L127.994582,0 Z M154.640254,198.374265 C148.051979,200.974899 142.807365,202.947048 138.873905,204.312381 C134.95128,205.677714 130.389333,206.360381 125.198899,206.360381 C117.223619,206.360381 111.014603,204.409905 106.593524,200.519788 C102.172444,196.629672 99.9727407,191.699302 99.9727407,185.707005 C99.9727407,183.37727 100.13528,180.993354 100.46036,178.566095 C100.796275,176.138836 101.327238,173.408169 102.053249,170.341587 L110.299429,141.214476 C111.025439,138.418794 111.653926,135.763979 112.152381,133.293376 C112.650836,130.801101 112.889228,128.514709 112.889228,126.434201 C112.889228,122.728296 112.119873,120.127661 110.592,118.664804 C109.042455,117.201947 106.127577,116.486772 101.782349,116.486772 C99.6584974,116.486772 97.4696296,116.801016 95.226582,117.462011 C93.0052063,118.144677 91.0764021,118.762328 89.4943492,119.369143 L91.672381,110.396952 C97.0686984,108.197249 102.23746,106.311788 107.167831,104.751407 C112.098201,103.169354 116.757672,102.389164 121.146243,102.389164 C129.067344,102.389164 135.178836,104.317968 139.48072,108.132233 C143.760931,111.957333 145.917291,116.931048 145.917291,123.04254 C145.917291,124.310349 145.765587,126.542561 145.473016,129.728339 C145.180444,132.924952 144.62781,135.839831 143.825947,138.516317 L135.623111,167.556741 C134.95128,169.886476 134.355302,172.552127 133.813503,175.532021 C133.28254,178.511915 133.022476,180.787471 133.022476,182.315344 C133.022476,186.172952 133.878519,188.806095 135.612275,190.203937 C137.32436,191.601778 140.325926,192.306116 144.57363,192.306116 C146.578286,192.306116 148.821333,191.948529 151.356952,191.255026 C153.870899,190.561524 155.691344,189.943873 156.839958,189.41291 L154.640254,198.374265 L154.640254,198.374265 Z M153.188233,80.5004868 C149.363132,84.0546878 144.757841,85.8317884 139.37236,85.8317884 C133.997714,85.8317884 129.359915,84.0546878 125.502307,80.5004868 C121.66637,76.9462857 119.72673,72.6227302 119.72673,67.573164 C119.72673,62.5344339 121.677206,58.2000423 125.502307,54.6133333 C129.359915,51.0157884 133.997714,49.2278519 139.37236,49.2278519 C144.757841,49.2278519 149.373968,51.0157884 153.188233,54.6133333 C157.013333,58.2000423 158.931302,62.5344339 158.931302,67.573164 C158.931302,72.6335661 157.013333,76.9462857 153.188233,80.5004868 L153.188233,80.5004868 Z" id="Shape" sketch:type="MSShapeGroup"></path>
            </g>
        </g>
    </g>
</svg>