<?xml version="1.0" encoding="UTF-8" standalone="no"?>
<svg width="256px" height="256px" viewBox="0 0 256 256" version="1.1" xmlns="http://www.w3.org/2000/svg" xmlns:xlink="http://www.w3.org/1999/xlink" xmlns:sketch="http://www.bohemiancoding.com/sketch/ns">
    <!-- Generator: Sketch 3.1.1 (8761) - http://www.bohemiancoding.com/sketch -->
    <title>local</title>
    <desc>Created with Sketch.</desc>
    <defs></defs>
    <g id="Page-1" stroke="none" stroke-width="1" fill="none" fill-rule="evenodd" sketch:type="MSPage">
        <g id="local" sketch:type="MSArtboardGroup">
            <circle id="Oval-1" fill="#1F3A93" sketch:type="MSShapeGroup" cx="128" cy="128" r="128"></circle>
            <g id="gps2" sketch:type="MSLayerGroup" transform="translate(58.000000, 37.000000)" fill="#FFFFFF">
                <path d="M70.1284711,41.4409171 C77.9971224,41.4409171 84.6679287,44.1830582 90.1375837,49.6673404 C95.6081834,55.1516226 98.3434832,61.8381662 98.3434832,69.7279184 C98.3434832,77.617197 95.6081834,84.3042142 90.1375837,89.7884964 C84.6679287,95.272305 77.9971224,98.0144461 70.1284711,98.0144461 C62.2588751,98.0144461 55.5885411,95.272305 50.1184138,89.7884964 C44.6478141,84.3042142 41.9125143,77.617197 41.9125143,69.7279184 C41.9125143,61.8381662 44.6478141,55.1516226 50.1184138,49.6673404 C55.5890134,44.1830582 62.2588751,41.4409171 70.1284711,41.4409171 L70.1284711,41.4409171 Z M134.909874,43.1730449 C131.262965,34.7060747 126.27226,27.29789 119.939174,20.9475439 C113.605143,14.5971978 106.214496,9.54618438 97.7686499,5.79403001 C89.3228035,2.04187563 80.3021238,0.165798445 70.7047214,0.165798445 L70.1294158,0.165798445 C60.5324857,0.165798445 51.5108613,2.04187563 43.065015,5.79403001 C34.619641,9.54618438 27.2294664,14.5976714 20.8954359,20.9475439 C14.5614053,27.2974165 9.57069942,34.7060747 5.92379042,43.1730449 C2.27688143,51.6395417 0.453190767,60.68373 0.453190767,70.3051365 L0.453190767,72.3251631 C0.453190767,72.710133 0.549075047,72.9985052 0.740843607,73.191227 C0.740843607,77.0395054 1.22073734,81.1771032 2.18052482,85.6025998 C2.56453427,88.2964421 3.90785886,92.1447205 6.21144326,97.1483822 C8.51502767,102.151097 11.2980335,107.634906 14.5614053,113.600282 C17.8243049,119.565658 21.3276236,125.771108 25.0704169,132.217578 C28.8132102,138.662627 32.4119408,144.628951 35.8670813,150.113233 C39.3217494,155.597041 42.3933527,160.311384 45.0804742,164.25626 C47.7675957,168.201136 49.6871707,170.750555 50.8387267,171.904044 C52.3742922,173.443451 54.1498045,175.078981 56.1652638,176.810635 C58.180723,178.542289 60.1480039,180.081695 62.0675789,181.428853 C63.9866815,182.776011 65.7144879,183.834323 67.2500533,184.604263 C68.7856188,185.373729 69.8412906,185.758699 70.4170686,185.758699 C70.9942636,185.758699 72.0017571,185.374203 73.4400213,184.604263 C74.8801748,183.834323 76.5593306,182.823836 78.4789055,181.57375 C80.3980081,180.322716 82.3657614,178.831609 84.3812206,177.100901 C86.3971521,175.368774 88.2680764,173.637119 89.9958828,171.904044 C91.1474389,170.749608 93.0670138,168.200662 95.7541353,164.255786 C98.4407845,160.311384 101.511443,155.547796 104.967528,149.967863 C108.421724,144.388404 112.021399,138.42208 115.762776,132.072208 C119.507458,125.721862 123.010305,119.515939 126.27226,113.455859 C129.535159,107.393412 132.270459,101.91055 134.478159,97.0034858 C136.684914,92.0968952 138.07689,88.2964421 138.652668,85.6025998 C139.036677,83.4859756 139.325275,81.4171767 139.516099,79.3971501 C139.707867,77.37665 139.900108,75.3078511 140.093766,73.191227 L140.093766,72.3251631 C140.093766,71.9406667 140.141944,71.6518209 140.237829,71.4590992 C140.333713,71.2663774 140.381891,70.9780052 140.381891,70.5930352 C140.380474,60.68373 138.558673,51.6400152 134.909874,43.1730449 Z" id="Shape" sketch:type="MSShapeGroup"></path>
            </g>
        </g>
    </g>
</svg>