<?xml version="1.0" encoding="UTF-8" standalone="no"?>
<svg width="256px" height="256px" viewBox="0 0 256 256" version="1.1" xmlns="http://www.w3.org/2000/svg" xmlns:xlink="http://www.w3.org/1999/xlink" xmlns:sketch="http://www.bohemiancoding.com/sketch/ns">
    <!-- Generator: Sketch 3.1.1 (8761) - http://www.bohemiancoding.com/sketch -->
    <title>user</title>
    <desc>Created with Sketch.</desc>
    <defs></defs>
    <g id="Page-1" stroke="none" stroke-width="1" fill="none" fill-rule="evenodd" sketch:type="MSPage">
        <g id="user" sketch:type="MSArtboardGroup" fill="#BFBFBF">
            <g id="profile27" sketch:type="MSLayerGroup">
                <path d="M126.697739,0.00556521739 C56.7318261,0.00556521739 0,56.7262609 0,126.697739 C0,196.669217 56.7262609,253.389913 126.697739,253.389913 C196.674783,253.389913 253.395478,196.669217 253.395478,126.697739 C253.395478,56.7262609 196.674783,0.00556521739 126.697739,0.00556521739 L126.697739,0.00556521739 Z M126.697739,37.888 C149.849043,37.888 168.609391,56.653913 168.609391,79.794087 C168.609391,102.939826 149.849043,121.700174 126.697739,121.700174 C103.557565,121.700174 84.7972174,102.939826 84.7972174,79.794087 C84.7972174,56.653913 103.557565,37.888 126.697739,37.888 L126.697739,37.888 Z M126.669913,220.265739 C103.579826,220.265739 82.432,211.856696 66.1203478,197.938087 C62.1467826,194.54887 59.853913,189.57913 59.853913,184.364522 C59.853913,160.896 78.848,142.113391 102.322087,142.113391 L151.084522,142.113391 C174.564174,142.113391 193.485913,160.896 193.485913,184.364522 C193.485913,189.584696 191.204174,194.543304 187.225043,197.932522 C170.918957,211.856696 149.765565,220.265739 126.669913,220.265739 L126.669913,220.265739 Z" id="Shape" sketch:type="MSShapeGroup"></path>
            </g>
        </g>
    </g>
</svg>