<?xml version="1.0" encoding="UTF-8" standalone="no"?>
<svg width="256px" height="256px" viewBox="0 0 256 256" version="1.1" xmlns="http://www.w3.org/2000/svg" xmlns:xlink="http://www.w3.org/1999/xlink" xmlns:sketch="http://www.bohemiancoding.com/sketch/ns">
    <!-- Generator: Sketch 3.1.1 (8761) - http://www.bohemiancoding.com/sketch -->
    <title>logout</title>
    <desc>Created with Sketch.</desc>
    <defs></defs>
    <g id="Page-1" stroke="none" stroke-width="1" fill="none" fill-rule="evenodd" sketch:type="MSPage">
        <g id="logout" sketch:type="MSArtboardGroup">
            <circle id="Oval-4" fill="#BFBFBF" sketch:type="MSShapeGroup" cx="128" cy="128" r="128"></circle>
            <g id="moustache14" sketch:type="MSLayerGroup" transform="translate(35.000000, 56.000000)" fill="#FFFFFF">
                <g id="Group" sketch:type="MSShapeGroup">
                    <g id="Shape">
                        <path d="M43.8664722,83.8396233 C66.8191944,83.8396233 85.4907778,65.0018836 85.4907778,41.8524658 C85.4907778,39.2514041 85.2231111,36.7135274 84.7699722,34.2391438 L102.241639,34.2391438 C101.788806,36.7135274 101.520833,39.2514041 101.520833,41.8524658 C101.520833,65.0018836 120.192417,83.8396233 143.141778,83.8396233 C166.0945,83.8396233 184.766083,65.0018836 184.766083,41.8524658 C184.766083,18.7030479 166.09175,-0.131609589 143.142389,-0.131609589 C129.165361,-0.131609589 116.804417,6.87791096 109.253528,17.5688014 L77.7550278,17.5688014 C70.2041389,6.87760274 57.8438056,-0.131609589 43.8661667,-0.131609589 C20.9168056,-0.131609589 2.24522222,18.7027397 2.24522222,41.8521575 C2.24552778,65.005274 20.9171111,83.8396233 43.8664722,83.8396233 L43.8664722,83.8396233 Z M143.14575,16.5418151 C156.984056,16.5418151 168.240722,27.8966096 168.240722,41.8521575 C168.240722,55.8077055 156.984056,67.1625 143.14575,67.1658904 C129.307444,67.1658904 118.054139,55.8110959 118.054139,41.8521575 C118.050778,27.8969178 129.307139,16.5418151 143.14575,16.5418151 L143.14575,16.5418151 Z M43.8664722,16.5418151 C57.7014167,16.5418151 68.9614444,27.8966096 68.9614444,41.8521575 C68.9614444,55.8077055 57.7047778,67.1625 43.8664722,67.1658904 C30.0281667,67.1658904 18.7748611,55.8110959 18.7748611,41.8521575 C18.7748611,27.8969178 30.0278611,16.5418151 43.8664722,16.5418151 L43.8664722,16.5418151 Z"></path>
                        <path d="M186.290806,111.841336 C184.611472,108.032979 180.350194,106.232363 176.055611,107.379555 C174.875556,107.696404 170.799139,108.223151 165.496528,108.223151 C150.765694,108.223151 124.07725,91.2763356 123.925083,91.1696918 C111.184333,81.9826027 93.6530833,89.1188014 93.5042778,89.242089 L93.5009167,89.242089 C93.3521111,89.1188014 75.8211667,81.9822945 63.0801111,91.1696918 C62.9279444,91.279726 36.2395,108.223151 21.5086667,108.223151 C16.2060556,108.223151 12.133,107.696404 10.9495833,107.379555 C6.65836111,106.235753 2.39708333,108.03637 0.714388889,111.841336 C0.297916667,112.785103 0.0663055556,113.782192 0.0134444444,114.77589 C-0.00977777778,115.166096 -0.00305555556,115.559692 0.0265833333,115.95637 C0.0696666667,116.46 0.16225,116.956849 0.29425,117.437055 C0.631583333,118.674247 2.60852778,121.401986 4.29763889,122.549178 C15.2933611,130.01887 27.2143056,133.767123 38.4083333,134.560788 C41.1390833,134.93774 44.0449167,135.130993 47.0433333,135.130993 C61.7876111,135.130993 79.7750556,130.178836 86.4328056,124.392945 C89.1867778,122.405548 91.5569722,120.044281 93.4975556,117.470034 C95.4381389,120.041199 97.8086389,122.402158 100.562306,124.392945 C107.220361,130.175445 125.207806,135.130993 139.951778,135.130993 C142.953556,135.130993 145.856028,134.937432 148.586778,134.560788 C159.7805,133.767123 171.701444,130.015479 182.696861,122.549178 C184.386278,121.401986 186.363222,118.674247 186.70025,117.437055 C186.835917,116.956849 186.9285,116.46 186.971278,115.95637 C187.004278,115.559384 187.007639,115.166096 186.984417,114.77589 C186.938583,113.782192 186.707278,112.784795 186.290806,111.841336 L186.290806,111.841336 Z"></path>
                    </g>
                </g>
            </g>
        </g>
    </g>
</svg>