<?xml version="1.0" encoding="UTF-8" standalone="no"?>
<svg width="256px" height="256px" viewBox="0 0 256 256" version="1.1" xmlns="http://www.w3.org/2000/svg" xmlns:xlink="http://www.w3.org/1999/xlink" xmlns:sketch="http://www.bohemiancoding.com/sketch/ns">
    <!-- Generator: Sketch 3.1.1 (8761) - http://www.bohemiancoding.com/sketch -->
    <title>near me now</title>
    <desc>Created with Sketch.</desc>
    <defs></defs>
    <g id="Page-1" stroke="none" stroke-width="1" fill="none" fill-rule="evenodd" sketch:type="MSPage">
        <g id="near-me-now" sketch:type="MSArtboardGroup" fill="#D64541">
            <g id="location72" sketch:type="MSLayerGroup">
                <g id="Group" sketch:type="MSShapeGroup">
                    <path d="M128,0.0151658768 C57.2966825,0.0151658768 0,57.3118483 0,128.015166 C0,198.718483 57.3270142,256.045498 128.030332,256.045498 C198.733953,256.045498 256.060967,198.718483 256.060967,128.015166 C256.060664,57.3118483 198.703318,0.0151658768 128,0.0151658768 L128,0.0151658768 Z M226.638863,133.748171 L171.738389,152.098882 L183.021801,174.908057 C185.6,180.125118 180.079621,185.615469 174.862559,183.03727 L152.204739,171.753858 L133.70237,226.745327 C131.852133,232.265706 124.056872,232.265706 122.206938,226.745327 L103.704569,171.814521 L80.985782,183.09763 C75.7687204,185.675829 70.278673,180.185782 72.856872,174.96872 L84.2006445,152.12891 L29.3001706,133.778199 C23.7797915,131.927962 23.7797915,124.132701 29.2698389,122.282464 L84.1703128,103.719735 L72.8869005,81.0919431 C70.2783697,75.8748815 75.7990521,70.3545024 81.0158104,72.9327014 L103.67363,84.1251185 L122.206635,29.2549763 C124.056872,23.7649289 131.852133,23.7649289 133.702066,29.2549763 L152.235071,84.1251185 L174.923223,72.9023697 C180.140284,70.3241706 185.630332,75.814218 183.052133,81.0312796 L171.829384,103.749763 L226.669194,122.252133 C232.159242,124.132701 232.159242,131.928265 226.638863,133.748171 L226.638863,133.748171 Z" id="Shape"></path>
                </g>
            </g>
        </g>
    </g>
</svg>