<?xml version="1.0" encoding="UTF-8" standalone="no"?>
<svg width="256px" height="256px" viewBox="0 0 256 256" version="1.1" xmlns="http://www.w3.org/2000/svg" xmlns:xlink="http://www.w3.org/1999/xlink" xmlns:sketch="http://www.bohemiancoding.com/sketch/ns">
    <!-- Generator: Sketch 3.1.1 (8761) - http://www.bohemiancoding.com/sketch -->
    <title>pubs</title>
    <desc>Created with Sketch.</desc>
    <defs></defs>
    <g id="Page-1" stroke="none" stroke-width="1" fill="none" fill-rule="evenodd" sketch:type="MSPage">
        <g id="pubs" sketch:type="MSArtboardGroup" fill="#1E824C">
            <path d="M127.994818,0 C57.3005341,0 0,57.306602 0,128.009169 C0,178.951472 29.8313885,222.807093 72.9042525,243.410137 L76.9104187,165.990849 C76.9104187,165.990849 69.37484,163.517527 67.7253359,162.712223 C51.742128,155.670989 40.1310226,134.938777 40.1310226,108.031233 C40.1310226,78.669503 62.8995998,53.3789473 84.9123869,53.1700465 L84.9586272,53.1700465 L84.9953006,53.1700465 C107.012871,53.37815 129.782246,78.6687057 129.782246,108.031233 C129.782246,134.938777 118.15679,155.662218 102.206269,162.712223 C102.081101,162.767238 92.9478395,166.084137 92.9478395,166.084137 L97.4219897,252.164836 C107.240087,254.581547 117.448037,256 128.012357,256 C142.259161,256 155.903247,253.572923 168.704642,249.28328 L172.669351,172.568834 C162.221429,170.270924 153.309802,163.618788 147.72429,155.27312 C140.804983,144.907014 153.050697,53.1612759 153.050697,53.1612759 L161.016789,53.1612759 L161.016789,139.255529 L168.927871,139.255529 L168.927871,53.1708438 L177.579595,53.1708438 L177.579595,139.274665 L185.453207,139.274665 L185.453207,53.1708438 L194.429411,53.1708438 L194.429411,139.274665 L202.330129,139.274665 L202.330129,53.1708438 L208.443419,53.1708438 C208.443419,53.1708438 220.689133,144.916582 213.761056,155.282688 C208.230554,163.546231 199.402638,170.179231 189.084667,172.532156 C188.899706,172.597538 188.732284,172.661324 188.732284,172.661324 L192.177985,238.649271 C230.304729,216.480268 256,175.293315 256,128.009967 C255.980866,57.3073993 198.680332,0 127.994818,0 L127.994818,0 Z" id="Shape-2" sketch:type="MSShapeGroup"></path>
        </g>
    </g>
</svg>