<?xml version="1.0" encoding="UTF-8" standalone="no"?>
<svg
   xmlns:dc="http://purl.org/dc/elements/1.1/"
   xmlns:cc="http://creativecommons.org/ns#"
   xmlns:rdf="http://www.w3.org/1999/02/22-rdf-syntax-ns#"
   xmlns:svg="http://www.w3.org/2000/svg"
   xmlns="http://www.w3.org/2000/svg"
   xmlns:sodipodi="http://sodipodi.sourceforge.net/DTD/sodipodi-0.dtd"
   xmlns:inkscape="http://www.inkscape.org/namespaces/inkscape"
   version="1.0"
   width="600.000000pt"
   height="600.000000pt"
   viewBox="0 0 600.000000 600.000000"
   preserveAspectRatio="xMidYMid meet"
   id="svg3508"
   inkscape:version="0.91 r13725"
   sodipodi:docname="search_newer.svg">
  <defs
     id="defs3520" />
  <sodipodi:namedview
     pagecolor="#ffffff"
     bordercolor="#666666"
     borderopacity="1"
     objecttolerance="10"
     gridtolerance="10"
     guidetolerance="10"
     inkscape:pageopacity="0"
     inkscape:pageshadow="2"
     inkscape:window-width="1247"
     inkscape:window-height="901"
     id="namedview3518"
     showgrid="false"
     inkscape:zoom="0.31466667"
     inkscape:cx="375"
     inkscape:cy="375"
     inkscape:window-x="2094"
     inkscape:window-y="71"
     inkscape:window-maximized="0"
     inkscape:current-layer="svg3508" />
  <metadata
     id="metadata3510">
Created by potrace 1.12, written by Peter Selinger 2001-2015
<rdf:RDF>
  <cc:Work
     rdf:about="">
    <dc:format>image/svg+xml</dc:format>
    <dc:type
       rdf:resource="http://purl.org/dc/dcmitype/StillImage" />
    <dc:title></dc:title>
  </cc:Work>
</rdf:RDF>
</metadata>
  <g
     transform="translate(0.000000,600.000000) scale(0.100000,-0.100000)"
     fill="#000000"
     stroke="none"
     id="g3512"
     style="fill:#0000ff">
    <path
       d="M2780 5989 c-1205 -85 -2254 -908 -2631 -2064 -242 -740 -179 -1566 170 -2264 156 -310 339 -560 592 -807 248 -241 483 -406 791 -554 424 -203 823 -293 1298 -293 492 0 902 96 1340 315 287 143 515 305 749 532 265 259 448 512 607 841 149 309 235 599 280 950 23 176 23 533 0 708 -91 705 -386 1302 -882 1788 -618 605 -1448 909 -2314 848z m-10 -1024 c120 -17 231 -43 310 -75 30 -12 66 -25 80 -30 75 -24 260 -138 360 -220 209 -173 349 -369 459 -645 65 -162 97 -380 87 -597 -12 -294 -99 -543 -274 -797 l-44 -63 63 -64 c55 -56 65 -62 83 -51 24 13 177 16 221 4 21 -6 156 -134 438 -415 365 -365 409 -412 427 -460 47 -126 16 -218 -123 -359 -143 -147 -240 -181 -369 -133 -48 18 -95 62 -460 427 -281 282 -409 417 -415 438 -12 44 -9 197 4 221 11 18 5 28 -51 83 l-64 63 -63 -44 c-254 -175 -503 -262 -797 -274 -217 -10 -435 22 -597 87 -173 69 -297 139 -417 236 -365 292 -568 715 -568 1185 0 178 44 406 109 563 17 43 105 212 124 240 130 192 270 333 446 451 42 28 206 115 256 135 85 35 257 80 370 97 96 15 292 13 405 -3z"
       id="path3514"
       style="fill:#0000ff" />
    <path
       d="M2455 4690 c-127 -8 -189 -22 -325 -73 -286 -107 -540 -343 -672 -624 -22 -46 -41 -92 -43 -103 -2 -10 -8 -27 -14 -38 -6 -10 -20 -66 -32 -123 -24 -118 -29 -372 -9 -469 7 -30 16 -74 21 -98 5 -23 13 -52 19 -63 6 -11 13 -30 15 -41 7 -37 93 -204 141 -274 59 -88 187 -220 284 -292 88 -66 255 -153 349 -181 124 -37 270 -61 375 -61 89 0 143 7 301 40 76 16 237 81 313 126 69 40 199 140 252 193 147 147 289 403 323 581 3 14 12 61 21 105 31 155 14 360 -45 555 -20 67 -111 260 -133 283 -6 6 -28 37 -48 67 -43 64 -200 221 -274 272 -170 119 -390 203 -557 214 -40 2 -92 6 -117 7 -25 2 -90 0 -145 -3z m-625 -1164 c12 -44 26 -87 30 -95 113 -244 207 -368 367 -482 110 -78 248 -148 333 -168 19 -5 62 -16 95 -25 41 -11 103 -16 193 -17 72 0 132 -4 132 -9 0 -14 -182 -99 -260 -120 -41 -12 -123 -24 -183 -27 -91 -5 -122 -2 -205 17 -232 55 -409 175 -531 360 -69 103 -124 249 -131 345 -16 214 7 352 82 495 l33 64 11 -130 c6 -71 21 -165 34 -208z"
       id="path3516"
       style="fill:#0000ff" />
  </g>
</svg>
